<svg version="1.1" xmlns="http://www.w3.org/2000/svg" xmlns:xlink="http://www.w3.org/1999/xlink" x="0px" y="0px" width="30px" height="30px" viewBox="0 0 30 30" style="enable-background:new 0 0 30 30;" xml:space="preserve">
<path class="st0" d="M15,0C6.8,0,0,6.7,0,15c0,8.2,6.8,15,15,15s15-6.8,15-15C30,6.7,23.2,0,15,0z M18.4,15l-5.8,4
	c-0.2,0.2-0.7,0.2-1,0c-0.3-0.1-0.3-0.4-0.1-0.6l5.5-3.8l-5.5-3.8c-0.2-0.2-0.2-0.4,0.1-0.6c0.3-0.1,0.7-0.1,1,0l5.8,4
	c0.1,0.1,0.2,0.2,0.2,0.3C18.6,14.8,18.5,14.9,18.4,15z"/>
</svg>